<?xml version="1.0" encoding="utf-8"?>
<svg version="1.1" baseProfile="tiny" xmlns="http://www.w3.org/2000/svg" xmlns:xlink="http://www.w3.org/1999/xlink" x="0px"
	 y="0px" viewBox="0 0 620.8 150" overflow="visible" xml:space="preserve">
<g id="Capa_2">
	<g>
		<g>
			<path fill="#1A171B" class="texto" d="M201.9,53.8h-28.3V32.5h78.3v21.3h-28.7v63.9h-21.3V53.8z"/>
			<path fill="#1A171B" class="texto" d="M252.2,107.9l-2.6,9.9h-12.7l13.3-42.6h16.2l13.6,42.6h-13.2l-2.9-9.9H252.2z M262.2,99.4l-2.1-7.7
				c-0.7-2.4-1.6-5.9-2.2-8.4h-0.1c-0.7,2.5-1.4,6.1-2,8.5l-2,7.6H262.2z"/>
			<path fill="#1A171B" class="texto" d="M287.3,75.7c3.5-0.5,8.7-0.9,14.8-0.9c7,0,12,0.9,15.4,3.3c2.9,2.1,4.5,5.1,4.5,9.3
				c0,5.3-4.3,9.1-7.9,10.3V98c3,1.2,4.7,3.9,5.8,7.6c1.4,4.4,2.9,10.6,3.8,12.2h-12.5c-0.7-1.3-1.8-4.6-3.2-9.8
				c-1.2-5.1-2.9-6.2-6.7-6.2h-2v16h-12.1V75.7z M299.4,93.6h3.2c4.6,0,7.2-2.2,7.2-5.3c0-3.2-2.2-5-6.3-5.1c-2.3,0-3.5,0.1-4.1,0.3
				V93.6z"/>
			<path fill="#1A171B" class="texto" d="M332.4,75.7c3.4-0.5,8.7-0.9,14.8-0.9c7,0,12,0.9,15.4,3.3c2.9,2.1,4.5,5.1,4.5,9.3
				c0,5.3-4.3,9.1-7.9,10.3V98c3,1.2,4.7,3.9,5.8,7.6c1.4,4.4,2.9,10.6,3.8,12.2h-12.5c-0.7-1.3-1.8-4.6-3.2-9.8
				c-1.2-5.1-2.9-6.2-6.7-6.2h-2v16h-12.1V75.7z M344.5,93.6h3.2c4.6,0,7.2-2.2,7.2-5.3c0-3.2-2.2-5-6.3-5.1c-2.3,0-3.5,0.1-4.1,0.3
				V93.6z"/>
			<path fill="#1A171B" class="texto" d="M391.5,107.9l-2.6,9.9h-13.2l13.8-42.6h16.2l13.6,42.6h-13.2l-2.9-9.9H391.5z M401.6,99.4l-2.1-7.7
				c-0.7-2.4-1.6-5.9-2.2-8.4h-0.1c-0.7,2.5-1.4,6.1-2,8.5l-2,7.6H401.6z"/>
			<path fill="#1A171B" class="texto" d="M523.1,96c0,15.6-12,22.8-24.3,22.8c-13.5,0-23.8-8.2-23.8-22c0-13.8,9.8-22.6,24.6-22.6
				C513.7,74.2,523.1,83.2,523.1,96z M489.8,96.5c0,7.3,3.3,12.8,9.4,12.8c5.6,0,9.1-5.2,9.1-12.8c0-6.4-2.6-12.9-9.1-12.9
				C492.3,83.6,489.8,90.2,489.8,96.5z"/>
			<path fill="#1A171B" class="texto" d="M528.9,88.6c0-5.3-0.2-9.7-0.4-13.4h12.7l0.7,5.9h0.3c1.9-2.7,6.7-6.8,14.5-6.8c9.6,0,16.8,5.6,16.8,18.2
				v25.4h-14.6V94c0-5.5-2.1-9.3-7.4-9.3c-4,0-6.4,2.5-7.4,5c-0.4,0.9-0.6,2.1-0.6,3.3v24.7h-14.6V88.6z"/>
			<path fill="#1A171B" class="texto" d="M592.9,107.9l-2.6,9.9h-12.7l13.3-42.6h16.2l13.6,42.6h-13.2l-2.9-9.9H592.9z M603,99.4l-2.1-7.7
				c-0.7-2.4-1.6-5.9-2.2-8.4h-0.1c-0.7,2.5-1.4,6.1-2,8.5l-2,7.6H603z"/>
		</g>
		<g>
			<path fill="#1A171B" class="texto" d="M469.9,116c0,9.8-1.9,20.7-7.3,25.9c-5.3,4.8-12.5,6.3-19.7,6.3c-6.3,0-13-1.4-17.4-4l3-12
				c3.1,1.9,8.4,3.9,14,3.9c7.1,0,12.5-6.9,12.5-16.3v-3.4h-0.2c-2.9,4.3-7.5,6.7-13,6.7c-11.9,0-20.4-7.4-20.4-22.2
				c0-16.4,10.1-26.9,21.9-26.9c6.6,0,10.8,3,13.2,7.2h0.2l0.5-6.1h13c-0.2,3.2-0.4,7.5-0.4,15.2V116z M446.5,85.9
				c-6,0-9.9,3.3-9.9,14.6c0,6.5,3.6,10.8,9.9,10.8c3.2,0,8.4-3.1,8.4-7.9v-7.5C454.8,87.6,449.6,85.9,446.5,85.9z"/>
		</g>
		<g>
			<path fill="#1A171B" class="texto" d="M281.7,32.5h3.4l8.1,21.3h-3.3l-2.3-6.4h-8.7l-2.4,6.4h-3.1L281.7,32.5z M286.7,45l-3.4-9.4l-3.6,9.4H286.7z"/>
			<path fill="#1A171B" class="texto" d="M310.1,47.4c0,1.8-0.3,3.2-0.8,4.2c-1,1.8-3,2.7-5.9,2.7c-1.7,0-3.1-0.4-4.3-1.3c-1.2-0.9-1.8-2.4-1.8-4.6v-1.5h2.8v1.5
				c0,1.2,0.3,2,0.8,2.6c0.5,0.6,1.4,0.9,2.5,0.9c1.6,0,2.7-0.5,3.2-1.6c0.3-0.6,0.5-1.9,0.5-3.7V32.5h3V47.4z"/>
			<path fill="#1A171B" class="texto" d="M321.2,32.5v13.2c0,1.5,0.3,2.8,0.9,3.9c0.9,1.5,2.4,2.3,4.6,2.3c2.6,0,4.3-0.8,5.2-2.5c0.5-0.9,0.7-2.1,0.7-3.7V32.5h3
				v12c0,2.6-0.4,4.6-1.1,6.1c-1.4,2.6-3.9,3.9-7.7,3.9c-3.8,0-6.3-1.3-7.7-3.9c-0.7-1.4-1.1-3.4-1.1-6.1v-12H321.2z"/>
			<path fill="#1A171B" class="texto" d="M343.6,32.5h3.5l11.1,17.2V32.5h2.9v21.3h-3.4l-11.3-17.3v17.3h-2.9V32.5z"/>
			<path fill="#1A171B" class="texto" d="M385.4,32.5V35h-7.5v18.8h-3V35h-7.5v-2.5H385.4z"/>
			<path fill="#1A171B" class="texto" d="M395.6,32.5h3.4l8.1,21.3h-3.3l-2.3-6.4h-8.7l-2.4,6.4h-3.1L395.6,32.5z M400.6,45l-3.4-9.4l-3.6,9.4H400.6z"/>
			<path fill="#1A171B" class="texto" d="M413,32.5h4.3l6.4,18l6.4-18h4.3v21.3h-2.9V41.2c0-0.4,0-1.2,0-2.2c0-1,0-2.1,0-3.2l-6.4,18h-3l-6.4-18v0.7
				c0,0.5,0,1.3,0,2.4c0,1.1,0,1.9,0,2.4v12.6H413V32.5z"/>
			<path fill="#1A171B" class="texto" d="M442.4,32.5h16.2v2.6h-13.2v6.5h12.2V44h-12.2v7.2h13.5v2.5h-16.4V32.5z"/>
			<path fill="#1A171B" class="texto" d="M466,32.5h3.5l11.1,17.2V32.5h2.9v21.3h-3.4l-11.3-17.3v17.3H466V32.5z"/>
			<path fill="#1A171B" class="texto" d="M507.8,32.5V35h-7.5v18.8h-3V35h-7.5v-2.5H507.8z"/>
			<path fill="#1A171B" class="texto" d="M529.1,32.5h8.9c3,0,5.4,1,7,3.1c1.5,1.9,2.2,4.3,2.2,7.2c0,2.3-0.4,4.3-1.3,6.1c-1.5,3.2-4.2,4.8-8,4.8h-8.9V32.5z
				 M537.3,51.3c1,0,1.8-0.1,2.5-0.3c1.1-0.4,2.1-1.1,2.8-2.2c0.6-0.9,1-2,1.3-3.3c0.1-0.8,0.2-1.5,0.2-2.2c0-2.6-0.5-4.7-1.6-6.1
				c-1.1-1.5-2.8-2.2-5.2-2.2h-5.2v16.4H537.3z"/>
			<path fill="#1A171B" class="texto" d="M557,32.5h16.2v2.6h-13.2v6.5h12.2V44h-12.2v7.2h13.5v2.5H557V32.5z"/>
		</g>
		<path fill="#C40D3C" class="imagotipo" d="M19.6,64.5c0-7.8-6.3-14.1-14.1-14.1v0c-1,0-2-0.1-2.9-0.3c-0.9,4.6-1.3,9.4-1.3,14.4
			c0,5,0.4,9.9,1.3,14.4c0.9-0.2,1.9-0.3,2.9-0.3C13.3,78.7,19.6,72.3,19.6,64.5z"/>
		<path fill="#C40D3C" class="imagotipo" d="M40.5,106.9c-7.8,0-14.1-6.3-14.1-14.1c0-7.8,6.3-14.1,14.1-14.1c7.8,0,14.1-6.3,14.1-14.1
			c0-7.8-6.3-14.1-14.1-14.1v0c-7.8,0-14.1-6.3-14.1-14.1c0-7.8,6.3-14.1,14.1-14.1v0c7.8,0,14.1-6.3,14.1-14.1
			c0-2.2-0.5-4.3-1.4-6.1c-5.9,1-11.4,2.5-16.5,4.7c0.1,0.5,0.1,0.9,0.1,1.4c0,7.8-6.3,14.1-14.1,14.1v0c-7.8,0-14.1,6.3-14.1,14.1
			c0,7.8,6.3,14.1,14.1,14.1v0c7.8,0,14.1,6.3,14.1,14.1c0,7.8-6.3,14.1-14.1,14.1C15,78.7,8.6,85,8.6,92.8
			c0,7.8,6.3,14.1,14.1,14.1c7.8,0,14.1,6.3,14.1,14.1c0,0.5,0,1-0.1,1.4c5,2.2,10.5,3.7,16.5,4.7c0.9-1.8,1.4-3.9,1.4-6.1
			C54.7,113.2,48.3,106.9,40.5,106.9z"/>
		<path fill="#C40D3C" class="imagotipo" d="M75.6,106.9c-7.8,0-14.1-6.3-14.1-14.1c0-7.8,6.3-14.1,14.1-14.1c7.8,0,14.1-6.3,14.1-14.1
			c0-7.8-6.3-14.1-14.1-14.1v0c-7.8,0-14.1-6.3-14.1-14.1c0-7.8,6.3-14.1,14.1-14.1v0c7.8,0,14.1-6.3,14.1-14.1c0-1.5-0.2-3-0.7-4.4
			C83.2,2.1,76.8,1.1,70,0.9C71.2,3,71.9,5.4,71.9,8c0,7.8-6.3,14.1-14.1,14.1v0c-7.8,0-14.1,6.3-14.1,14.1
			c0,7.8,6.3,14.1,14.1,14.1v0c7.8,0,14.1,6.3,14.1,14.1c0,7.8-6.3,14.1-14.1,14.1S43.7,85,43.7,92.8c0,7.8,6.3,14.1,14.1,14.1
			s14.1,6.3,14.1,14.1c0,2.6-0.7,5-1.9,7.1c6.8-0.2,13.2-1.1,19.1-2.8c0.4-1.4,0.7-2.8,0.7-4.3C89.7,113.2,83.4,106.9,75.6,106.9z"
			/>
		<path fill="#C40D3C" class="imagotipo" d="M112.2,36.3c0,7.8,7.9,14.1,15.7,14.1v0c1.4,0,2.7,0.2,3.9,0.6c-1.8-10.4-5.7-19.4-11.5-26.9
			C115.7,26.6,112.2,31.1,112.2,36.3z"/>
		<path fill="#C40D3C" class="imagotipo" d="M127.9,78.7c-7.8,0-14.1,6.3-14.1,14.1c0,5.1,2.7,9.5,6.7,12c5.7-7.4,9.5-16.4,11.3-26.7
			C130.6,78.4,129.2,78.7,127.9,78.7z"/>
		<path fill="#C40D3C" class="imagotipo" d="M96.5,92.8c0-7.8,6.3-14.1,14.1-14.1s14.1-6.3,14.1-14.1c0-7.8-6.3-14.1-14.1-14.1v0
			c-7.8,0-14.1-6.3-14.1-14.1c0-7.8,6.3-14.1,14.1-14.1v0c2.4,0,4.7-0.6,6.7-1.7c-3.2-3.4-6.8-6.5-10.8-9.1
			c-1.5,6.2-7.1,10.7-13.7,10.7v0c-7.8,0-14.1,6.3-14.1,14.1c0,7.8,6.3,14.1,14.1,14.1v0c7.8,0,14.1,6.3,14.1,14.1
			c0,7.8-6.3,14.1-14.1,14.1c-7.8,0-14.1,6.3-14.1,14.1c0,7.8,6.3,14.1,14.1,14.1c6.6,0,12.2,4.6,13.7,10.7c4-2.6,7.6-5.6,10.8-9.1
			c-2-1.1-4.3-1.7-6.7-1.7C102.8,106.9,96.5,100.6,96.5,92.8z"/>
	</g>
</g>
</svg>
