<?xml version="1.0" encoding="utf-8"?>
<svg baseProfile="tiny" id="Capa_1"
    xmlns="http://www.w3.org/2000/svg"
    xmlns:xlink="http://www.w3.org/1999/xlink" x="0px" y="0px" viewBox="0 0 100 150" overflow="visible" xml:space="preserve" class="jss266" file="[object File]">
    <line fill="none" stroke="#B0BEC5" stroke-width="2" stroke-linecap="round" stroke-miterlimit="10" x1="7.3" y1="14.4" x2="64" y2="14.4"></line>
    <line fill="none" stroke="#B0BEC5" stroke-width="2" stroke-linecap="round" stroke-miterlimit="10" x1="11.3" y1="25.6" x2="21" y2="25.6"></line>
    <rect x="7.4" y="20.9" fill="none" stroke="#B0BEC5" stroke-linecap="round" stroke-linejoin="round" stroke-miterlimit="10" width="84.1" height="117.6"></rect>
    <line fill="none" stroke="#B0BEC5" stroke-linecap="round" stroke-linejoin="round" stroke-miterlimit="10" x1="7.5" y1="29.5" x2="91" y2="29.5"></line>
    <line fill="none" stroke="#B0BEC5" stroke-width="2" stroke-linecap="round" stroke-miterlimit="10" x1="11.3" y1="34.6" x2="21" y2="34.6"></line>
    <line fill="none" stroke="#B0BEC5" stroke-linecap="round" stroke-linejoin="round" stroke-miterlimit="10" x1="7.5" y1="38.5" x2="91" y2="38.5"></line>
    <line fill="none" stroke="#B0BEC5" stroke-width="2" stroke-linecap="round" stroke-miterlimit="10" x1="11.3" y1="43.6" x2="21" y2="43.6"></line>
    <line fill="none" stroke="#B0BEC5" stroke-linecap="round" stroke-linejoin="round" stroke-miterlimit="10" x1="7.5" y1="47.5" x2="91" y2="47.5"></line>
    <line fill="none" stroke="#B0BEC5" stroke-linecap="round" stroke-linejoin="round" stroke-miterlimit="10" x1="7.5" y1="56.5" x2="91" y2="56.5"></line>
    <line fill="none" stroke="#000000" stroke-width="2" stroke-linecap="round" stroke-miterlimit="10" x1="11.3" y1="52.6" x2="21" y2="52.6"></line>
    <line fill="none" stroke="#B0BEC5" stroke-linecap="round" stroke-linejoin="round" stroke-miterlimit="10" x1="7.5" y1="56.5" x2="91" y2="56.5"></line>
    <line fill="none" stroke="#B0BEC5" stroke-width="2" stroke-linecap="round" stroke-miterlimit="10" x1="11.3" y1="61.6" x2="21" y2="61.6"></line>
    <line fill="none" stroke="#B0BEC5" stroke-linecap="round" stroke-linejoin="round" stroke-miterlimit="10" x1="7.5" y1="65.5" x2="91" y2="65.5"></line>
    <line fill="none" stroke="#B0BEC5" stroke-width="2" stroke-linecap="round" stroke-miterlimit="10" x1="11.3" y1="70.6" x2="21" y2="70.6"></line>
    <line fill="none" stroke="#B0BEC5" stroke-linecap="round" stroke-linejoin="round" stroke-miterlimit="10" x1="7.5" y1="74.5" x2="91" y2="74.5"></line>
    <line fill="none" stroke="#B0BEC5" stroke-width="2" stroke-linecap="round" stroke-miterlimit="10" x1="11.3" y1="79.6" x2="21" y2="79.6"></line>
    <line fill="none" stroke="#B0BEC5" stroke-linecap="round" stroke-linejoin="round" stroke-miterlimit="10" x1="7.5" y1="83.5" x2="91" y2="83.5"></line>
    <line fill="none" stroke="#B0BEC5" stroke-linecap="round" stroke-linejoin="round" stroke-miterlimit="10" x1="7.5" y1="92.5" x2="91" y2="92.5"></line>
    <line fill="none" stroke="#B0BEC5" stroke-width="2" stroke-linecap="round" stroke-miterlimit="10" x1="11.3" y1="88.6" x2="21" y2="88.6"></line>
    <line fill="none" stroke="#B0BEC5" stroke-width="2" stroke-linecap="round" stroke-miterlimit="10" x1="29.3" y1="25.6" x2="43.9" y2="25.6"></line>
    <line fill="none" stroke="#B0BEC5" stroke-width="2" stroke-linecap="round" stroke-miterlimit="10" x1="29.3" y1="34.6" x2="43.9" y2="34.6"></line>
    <line fill="none" stroke="#B0BEC5" stroke-width="2" stroke-linecap="round" stroke-miterlimit="10" x1="29.3" y1="43.6" x2="43.9" y2="43.6"></line>
    <line fill="none" class="color-stroke" stroke="#0F63F2" stroke-width="2" stroke-linecap="round" stroke-miterlimit="10" x1="29.3" y1="52.6" x2="43.9" y2="52.6"></line>
    <line fill="none" stroke="#B0BEC5" stroke-width="2" stroke-linecap="round" stroke-miterlimit="10" x1="29.3" y1="61.6" x2="43.9" y2="61.6"></line>
    <line fill="none" stroke="#B0BEC5" stroke-width="2" stroke-linecap="round" stroke-miterlimit="10" x1="29.3" y1="70.6" x2="43.9" y2="70.6"></line>
    <line fill="none" stroke="#B0BEC5" stroke-width="2" stroke-linecap="round" stroke-miterlimit="10" x1="29.3" y1="79.6" x2="43.9" y2="79.6"></line>
    <line fill="none" stroke="#B0BEC5" stroke-width="2" stroke-linecap="round" stroke-miterlimit="10" x1="48" y1="25.6" x2="50.9" y2="25.6"></line>
    <line fill="none" stroke="#B0BEC5" stroke-width="2" stroke-linecap="round" stroke-miterlimit="10" x1="48" y1="34.6" x2="50.9" y2="34.6"></line>
    <line fill="none" stroke="#B0BEC5" stroke-width="2" stroke-linecap="round" stroke-miterlimit="10" x1="48" y1="43.6" x2="50.9" y2="43.6"></line>
    <line fill="none" class="color-stroke" stroke="#0F63F2" stroke-width="2" stroke-linecap="round" stroke-miterlimit="10" x1="48" y1="52.6" x2="50.9" y2="52.6"></line>
    <line fill="none" stroke="#B0BEC5" stroke-width="2" stroke-linecap="round" stroke-miterlimit="10" x1="48" y1="61.6" x2="50.9" y2="61.6"></line>
    <line fill="none" stroke="#B0BEC5" stroke-width="2" stroke-linecap="round" stroke-miterlimit="10" x1="48" y1="70.6" x2="50.9" y2="70.6"></line>
    <line fill="none" stroke="#B0BEC5" stroke-width="2" stroke-linecap="round" stroke-miterlimit="10" x1="48" y1="79.6" x2="50.9" y2="79.6"></line>
    <line fill="none" stroke="#B0BEC5" stroke-linecap="round" stroke-linejoin="round" stroke-miterlimit="10" x1="7.5" y1="92.5" x2="91" y2="92.5"></line>
    <line fill="none" stroke="#B0BEC5" stroke-linecap="round" stroke-linejoin="round" stroke-miterlimit="10" x1="7.5" y1="101.5" x2="91" y2="101.5"></line>
    <line fill="none" stroke="#B0BEC5" stroke-linecap="round" stroke-linejoin="round" stroke-miterlimit="10" x1="7.5" y1="110.5" x2="91" y2="110.5"></line>
    <line fill="none" stroke="#B0BEC5" stroke-linecap="round" stroke-linejoin="round" stroke-miterlimit="10" x1="7.5" y1="119.5" x2="91" y2="119.5"></line>
    <line fill="none" stroke="#B0BEC5" stroke-linecap="round" stroke-linejoin="round" stroke-miterlimit="10" x1="7.5" y1="128.5" x2="91" y2="128.5"></line>
    <line fill="none" stroke="#B0BEC5" stroke-linecap="round" stroke-linejoin="round" stroke-miterlimit="10" x1="25.5" y1="138" x2="25.5" y2="21.5"></line>
    <line fill="none" stroke="#B0BEC5" stroke-width="2" stroke-linecap="round" stroke-miterlimit="10" x1="59.3" y1="25.6" x2="69" y2="25.6"></line>
    <line fill="none" stroke="#B0BEC5" stroke-width="2" stroke-linecap="round" stroke-miterlimit="10" x1="59.3" y1="34.6" x2="69" y2="34.6"></line>
    <line fill="none" stroke="#B0BEC5" stroke-width="2" stroke-linecap="round" stroke-miterlimit="10" x1="59.3" y1="43.6" x2="69" y2="43.6"></line>
    <line fill="none" stroke="#000000" stroke-width="2" stroke-linecap="round" stroke-miterlimit="10" x1="59.3" y1="52.6" x2="69" y2="52.6"></line>
    <line fill="none" stroke="#B0BEC5" stroke-width="2" stroke-linecap="round" stroke-miterlimit="10" x1="59.3" y1="61.6" x2="69" y2="61.6"></line>
    <line fill="none" stroke="#B0BEC5" stroke-width="2" stroke-linecap="round" stroke-miterlimit="10" x1="59.3" y1="70.6" x2="69" y2="70.6"></line>
    <line fill="none" stroke="#B0BEC5" stroke-linecap="round" stroke-linejoin="round" stroke-miterlimit="10" x1="73.5" y1="138" x2="73.5" y2="21.5"></line>
    <line fill="none" stroke="#B0BEC5" stroke-linecap="round" stroke-linejoin="round" stroke-miterlimit="10" x1="55.5" y1="138" x2="55.5" y2="21.5"></line>
    <rect x="25.5" y="47.5" fill="none" class="color-stroke" stroke="#0F63F2" stroke-linecap="round" stroke-linejoin="round" stroke-miterlimit="10" width="30" height="9"></rect>
    <line fill="none" stroke="#B0BEC5" stroke-width="2" stroke-linecap="round" stroke-miterlimit="10" x1="77.3" y1="25.6" x2="87" y2="25.6"></line>
    <line fill="none" stroke="#B0BEC5" stroke-width="2" stroke-linecap="round" stroke-miterlimit="10" x1="77.3" y1="34.6" x2="87" y2="34.6"></line>
    <line fill="none" stroke="#B0BEC5" stroke-width="2" stroke-linecap="round" stroke-miterlimit="10" x1="77.3" y1="43.6" x2="87" y2="43.6"></line>
    <line fill="none" stroke="#000000" stroke-width="2" stroke-linecap="round" stroke-miterlimit="10" x1="77.3" y1="52.6" x2="87" y2="52.6"></line>
    <line fill="none" stroke="#B0BEC5" stroke-width="2" stroke-linecap="round" stroke-miterlimit="10" x1="77.3" y1="61.6" x2="87" y2="61.6"></line>
    <line fill="none" stroke="#B0BEC5" stroke-width="2" stroke-linecap="round" stroke-miterlimit="10" x1="77.3" y1="70.6" x2="87" y2="70.6"></line>
    <line fill="none" stroke="#B0BEC5" stroke-width="2" stroke-linecap="round" stroke-miterlimit="10" x1="77.3" y1="79.6" x2="87" y2="79.6"></line>
    <line fill="none" stroke="#B0BEC5" stroke-width="2" stroke-linecap="round" stroke-miterlimit="10" x1="77.3" y1="88.6" x2="87" y2="88.6"></line>
</svg>