<?xml version="1.0" encoding="utf-8"?>
<svg baseProfile="tiny" id="Capa_1"
    xmlns="http://www.w3.org/2000/svg"
    xmlns:xlink="http://www.w3.org/1999/xlink" x="0px" y="0px" viewBox="0 0 100 150" overflow="visible" xml:space="preserve" class="jss266" file="[object File]">
    <line fill="none" class="color-stroke" stroke="#0F63F2" stroke-width="4" stroke-linecap="round" stroke-miterlimit="10" x1="11" y1="14.4" x2="64" y2="14.4"></line>
    <line fill="none" stroke="#B0BEC5" stroke-linecap="round" stroke-miterlimit="10" x1="76" y1="138.4" x2="87" y2="138.4"></line>
    <line fill="none" stroke="#B0BEC5" stroke-width="2" stroke-linecap="round" stroke-miterlimit="10" x1="11.3" y1="23.6" x2="87" y2="23.6"></line>
    <line fill="none" stroke="#B0BEC5" stroke-width="2" stroke-linecap="round" stroke-miterlimit="10" x1="11.3" y1="28.6" x2="87" y2="28.6"></line>
    <line fill="none" stroke="#B0BEC5" stroke-width="2" stroke-linecap="round" stroke-miterlimit="10" x1="11.3" y1="33.6" x2="23" y2="33.6"></line>
    <line fill="none" stroke="#000000" stroke-width="4" stroke-linecap="round" stroke-miterlimit="10" x1="11.3" y1="76.6" x2="23" y2="76.6"></line>
    <line fill="none" stroke="#B0BEC5" stroke-width="2" stroke-linecap="round" stroke-miterlimit="10" x1="11.3" y1="43.6" x2="87" y2="43.6"></line>
    <line fill="none" stroke="#B0BEC5" stroke-width="2" stroke-linecap="round" stroke-miterlimit="10" x1="11.3" y1="48.6" x2="87" y2="48.6"></line>
    <line fill="none" stroke="#B0BEC5" stroke-width="2" stroke-linecap="round" stroke-miterlimit="10" x1="11.3" y1="53.6" x2="87" y2="53.6"></line>
    <line fill="none" stroke="#B0BEC5" stroke-width="2" stroke-linecap="round" stroke-miterlimit="10" x1="11.3" y1="58.6" x2="87" y2="58.6"></line>
    <line fill="none" stroke="#B0BEC5" stroke-width="2" stroke-linecap="round" stroke-miterlimit="10" x1="11.3" y1="63.6" x2="69" y2="63.6"></line>
    <line fill="none" stroke="#B0BEC5" stroke-width="2" stroke-linecap="round" stroke-miterlimit="10" x1="11.3" y1="87.6" x2="87" y2="87.6"></line>
    <line fill="none" stroke="#B0BEC5" stroke-width="2" stroke-linecap="round" stroke-miterlimit="10" x1="11.3" y1="92.6" x2="87" y2="92.6"></line>
    <line fill="none" stroke="#B0BEC5" stroke-width="2" stroke-linecap="round" stroke-miterlimit="10" x1="11.3" y1="97.6" x2="87" y2="97.6"></line>
    <line fill="none" stroke="#B0BEC5" stroke-width="2" stroke-linecap="round" stroke-miterlimit="10" x1="11.3" y1="102.6" x2="51" y2="102.6"></line>
    <line fill="none" stroke="#B0BEC5" stroke-width="2" stroke-linecap="round" stroke-miterlimit="10" x1="11.3" y1="111.6" x2="87" y2="111.6"></line>
    <line fill="none" stroke="#B0BEC5" stroke-width="2" stroke-linecap="round" stroke-miterlimit="10" x1="11.3" y1="116.6" x2="87" y2="116.6"></line>
    <line fill="none" stroke="#B0BEC5" stroke-width="2" stroke-linecap="round" stroke-miterlimit="10" x1="11.3" y1="121.6" x2="87" y2="121.6"></line>
    <line fill="none" stroke="#B0BEC5" stroke-width="2" stroke-linecap="round" stroke-miterlimit="10" x1="11.3" y1="126.6" x2="87" y2="126.6"></line>
</svg>